<!-- Generated by IcoMoon.io -->
<svg version="1.1" xmlns="http://www.w3.org/2000/svg" width="1024" height="1024" viewBox="0 0 1024 1024">
<g id="icomoon-ignore">
</g>
<path fill="#50fa7b" d="M108.117 396.245c0 263.381 214.443 627.755 403.883 627.755 178.347 0 403.883-364.331 403.883-627.755 0.043-263.424-180.821-396.245-403.883-396.245s-403.883 132.821-403.883 396.245zM616.96 591.019c35.901-35.929 85.513-58.153 140.316-58.153 14.634 0 28.897 1.585 42.629 4.592l-1.312-0.241c2.757 12.398 4.336 26.638 4.336 41.246 0 54.816-22.236 104.44-58.179 140.342l-0.002 0.002c-35.905 35.95-85.531 58.189-140.351 58.189-14.621 0-28.873-1.582-42.593-4.584l1.312 0.241c-2.761-12.408-4.343-26.66-4.343-41.281 0-54.82 22.239-104.446 58.187-140.349l0.002-0.002zM225.408 537.216c12.429-2.771 26.705-4.358 41.352-4.358 54.806 0 104.421 22.227 140.322 58.16l0.001 0.001c35.929 35.901 58.153 85.513 58.153 140.316 0 14.634-1.585 28.897-4.592 42.629l0.241-1.312c-12.408 2.761-26.66 4.343-41.281 4.343-54.82 0-104.446-22.239-140.349-58.187l-0.002-0.002c-35.945-35.904-58.181-85.527-58.181-140.343 0-14.609 1.579-28.848 4.576-42.558l-0.241 1.312z"></path>
</svg>
