<!-- Generated by IcoMoon.io -->
<svg version="1.1" xmlns="http://www.w3.org/2000/svg" width="1024" height="1024" viewBox="0 0 1024 1024">
<g id="icomoon-ignore">
</g>
<path fill="#2f93e0" d="M93.013 777.045c77.013-49.579 167.595-134.912 133.205-235.093-18.645-54.699-44.629-101.504-48.085-160.512-0.415-6.488-0.652-14.069-0.652-21.705 0-45.22 8.298-88.503 23.454-128.407l-0.829 2.485c69.12-185.173 274.603-272.939 460.416-217.216 171.947 51.883 290.475 251.435 218.411 425.515-41.173 100.523-59.52 178.048 32.213 256.256 24.832 21.163 85.333 52.907 84.992 90.581 0 49.621-96.853-10.411-107.605-18.987 12.203 21.461 133.888 148.779 56.533 157.355-71.253 8.277-134.272-91.264-177.067-134.059-71.936-71.765-59.52 87.125-59.861 119.893 0 51.712-37.035 156.843-102.827 88.405-54.187-56.363-33.067-146.475-71.424-209.28-41.301-68.779-110.080 68.779-127.275 93.867-19.2 28.16-115.755 164.011-153.429 91.605-30.933-58.88 18.517-150.955 42.965-204.16-8.917 19.328-71.893 47.915-90.24 57.173-34.095 19.149-74.834 30.428-118.207 30.428-4.3 0-8.574-0.111-12.819-0.33l0.595 0.024c-96.725-6.955-22.485-58.368 16.512-83.627z"></path>
</svg>
