<!-- Generated by IcoMoon.io -->
<svg version="1.1" xmlns="http://www.w3.org/2000/svg" width="1024" height="1024" viewBox="0 0 1024 1024">
<g id="icomoon-ignore">
</g>
<path fill="#6db944" d="M781.227 0l-14.933 0.427c-66.133 5.547-104.96 51.2-110.933 97.28-6.4 51.2 27.733 102.4 110.080 97.28 91.733-5.12 131.84-51.2 132.267-97.28 0.853-49.067-42.667-97.28-116.48-97.707zM307.627 14.507c-0.256-0.002-0.56-0.003-0.863-0.003-56.658 0-103.62 41.518-112.121 95.79l-0.083 0.64c-6.4 48.213 23.893 96.853 104.107 96 95.147-1.707 141.227-58.453 134.827-109.653-5.12-42.667-46.507-81.92-125.867-82.773zM834.56 386.133c-6.309 0.137-12.243 0.445-18.129 0.923l1.063-0.069c-225.28 23.040-236.373 25.6-651.093 34.987-174.933 0.427-139.947 602.027 233.813 602.027 349.867 0 773.12-646.4 434.347-637.867zM787.627 501.333c135.68-2.987-123.733 406.613-375.467 407.893-318.293 0-274.773-375.467-221.013-377.6 369.92-14.933 464.213-27.307 596.48-30.293z"></path>
</svg>
