<!-- Generated by IcoMoon.io -->
<svg version="1.1" xmlns="http://www.w3.org/2000/svg" width="1024" height="1024" viewBox="0 0 1024 1024">
<g id="icomoon-ignore">
</g>
<path fill="#f60d1a" d="M400 374.699l-189.525 189.44c-61.909 61.867-61.909 162.261 0 224.128l189.525 189.397c61.867 61.824 162.091 61.824 223.957 0l189.525-189.397c61.909-61.867 61.952-162.261 0-224.128l-189.525-189.44c-61.824-61.824-162.091-61.824-223.957 0zM452.053 314.88c-127.915-13.653-256.768-110.336-266.965-314.88 198.485 0 304.64 117.504 314.88 303.701 37.547-223.317 213.461-197.163 213.461-197.163 8.363 126.549-95.573 203.307-213.461 209.664-33.109-69.803-231.509-240.981-231.509-240.981-0.213-0.171-0.597-0.171-0.768 0.085-0.128 0.128-0.171 0.384-0.085 0.555 0 0 191.445 166.784 184.448 239.019zM511.744 754.517c-95.189 7.040-137.045 74.155-134.315 139.691-0.128-1.536-0.299-2.987-0.384-4.565-5.675-78.848 56.619-136.96 56.619-213.547-7.339-99.072-79.744-140.245-147.712-133.675 4.309-0.512 8.704-0.939 13.355-1.195 78.848-5.675 137.045 56.619 213.547 56.619 88.832-6.699 131.157-65.579 134.229-126.677 0.939 74.667-56.789 131.371-56.789 205.227 7.040 95.147 74.069 136.96 139.563 134.315-1.536 0.128-2.987 0.299-4.565 0.384-78.848 5.717-137.045-56.576-213.547-56.576z"></path>
</svg>
